<svg width="40" height="40" viewBox="0 0 40 40" fill="none" xmlns="http://www.w3.org/2000/svg">
<rect width="40" height="40" rx="20" fill="#6E8678"/>
<path d="M26.4001 11.6H13.6001C12.4973 11.6 11.6001 12.4972 11.6001 13.6V26.4C11.6001 27.5028 12.4973 28.4 13.6001 28.4H26.4001C27.5029 28.4 28.4001 27.5028 28.4001 26.4V13.6C28.4001 12.4972 27.5029 11.6 26.4001 11.6ZM24.8025 18.9292C24.7117 18.9376 24.6197 18.9432 24.5265 18.9432C23.4773 18.9432 22.5553 18.4036 22.0189 17.588C22.0189 19.7276 22.0189 22.162 22.0189 22.2028C22.0189 24.0864 20.4917 25.6136 18.6081 25.6136C16.7245 25.6136 15.1973 24.0864 15.1973 22.2028C15.1973 20.3192 16.7245 18.792 18.6081 18.792C18.6793 18.792 18.7489 18.7984 18.8189 18.8028V20.4836C18.7489 20.4752 18.6801 20.4624 18.6081 20.4624C17.6465 20.4624 16.8673 21.2416 16.8673 22.2032C16.8673 23.1648 17.6465 23.944 18.6081 23.944C19.5697 23.944 20.4189 23.1864 20.4189 22.2248C20.4189 22.1868 20.4357 14.3872 20.4357 14.3872H22.0421C22.1933 15.8236 23.3529 16.9572 24.8025 17.0612V18.9292Z" fill="#060707"/>
</svg>
