<svg width="40" height="40" viewBox="0 0 40 40" fill="none" xmlns="http://www.w3.org/2000/svg">
<rect width="40" height="40" rx="20" fill="#6E8678"/>
<path d="M25.4058 10.0042L22.8123 10C19.8985 10 18.0155 11.9319 18.0155 14.922V17.1914H15.4078C15.1825 17.1914 15 17.3741 15 17.5994V20.8875C15 21.1128 15.1827 21.2953 15.4078 21.2953H18.0155V29.5922C18.0155 29.8175 18.198 30 18.4233 30H21.8256C22.051 30 22.2334 29.8173 22.2334 29.5922V21.2953H25.2825C25.5078 21.2953 25.6903 21.1128 25.6903 20.8875L25.6915 17.5994C25.6915 17.4912 25.6484 17.3876 25.5721 17.311C25.4957 17.2345 25.3917 17.1914 25.2835 17.1914H22.2334V15.2676C22.2334 14.343 22.4538 13.8736 23.6583 13.8736L25.4054 13.873C25.6305 13.873 25.813 13.6903 25.813 13.4651V10.412C25.813 10.1871 25.6308 10.0046 25.4058 10.0042Z" fill="#060707"/>
</svg>
