<svg width="40" height="40" viewBox="0 0 40 40" fill="none" xmlns="http://www.w3.org/2000/svg">
<rect width="40" height="40" rx="20" fill="#6E8678"/>
<path d="M26.65 14.3078C25.0579 13.0265 22.5391 12.8093 22.4313 12.8015C22.2641 12.7875 22.1047 12.8812 22.036 13.0359C22.0297 13.0453 21.975 13.1718 21.9141 13.3687C22.9672 13.5468 24.261 13.9047 25.4313 14.6312C25.6188 14.7468 25.6766 14.9937 25.561 15.1812C25.4844 15.3047 25.3547 15.3718 25.2204 15.3718C25.1485 15.3718 25.075 15.3515 25.0094 15.3109C22.9969 14.0625 20.4844 14 20 14C19.5157 14 17.0016 14.0625 14.9907 15.3109C14.8032 15.4281 14.5563 15.3703 14.4407 15.1828C14.3235 14.9937 14.3813 14.7484 14.5688 14.6312C15.7391 13.9062 17.0329 13.5468 18.086 13.3703C18.025 13.1718 17.9704 13.0468 17.9657 13.0359C17.8954 12.8812 17.7375 12.7843 17.5688 12.8015C17.461 12.8093 14.9422 13.0265 13.3282 14.325C12.486 15.1047 10.8 19.6609 10.8 23.6C10.8 23.6703 10.8188 23.7375 10.8532 23.7984C12.0157 25.8422 15.1891 26.3765 15.9125 26.4C15.9157 26.4 15.9204 26.4 15.925 26.4C16.0532 26.4 16.1735 26.339 16.2485 26.2359L16.9797 25.2297C15.0063 24.7203 13.9985 23.8547 13.9407 23.8031C13.775 23.6578 13.7594 23.4047 13.9063 23.239C14.0516 23.0734 14.3047 23.0578 14.4704 23.2031C14.4938 23.225 16.35 24.8 20 24.8C23.6563 24.8 25.5125 23.2187 25.5313 23.2031C25.6969 23.0593 25.9485 23.0734 26.0954 23.2406C26.2407 23.4062 26.225 23.6578 26.0594 23.8031C26.0016 23.8547 24.9938 24.7203 23.0204 25.2297L23.7516 26.2359C23.8266 26.339 23.9469 26.4 24.075 26.4C24.0797 26.4 24.0844 26.4 24.0875 26.4C24.811 26.3765 27.9844 25.8422 29.1469 23.7984C29.1813 23.7375 29.2 23.6703 29.2 23.6C29.2 19.6609 27.5141 15.1047 26.65 14.3078ZM17.4 22C16.6266 22 16 21.2843 16 20.4C16 19.5156 16.6266 18.8 17.4 18.8C18.1735 18.8 18.8 19.5156 18.8 20.4C18.8 21.2843 18.1735 22 17.4 22ZM22.6 22C21.8266 22 21.2 21.2843 21.2 20.4C21.2 19.5156 21.8266 18.8 22.6 18.8C23.3735 18.8 24 19.5156 24 20.4C24 21.2843 23.3735 22 22.6 22Z" fill="#060707"/>
</svg>
