<svg width="40" height="40" viewBox="0 0 40 40" fill="none" xmlns="http://www.w3.org/2000/svg">
<rect width="40" height="40" rx="20" fill="#6E8678"/>
<path d="M16.4 11.2C13.532 11.2 11.2 13.532 11.2 16.4V23.6C11.2 26.468 13.532 28.8 16.4 28.8H23.6C26.468 28.8 28.8 26.468 28.8 23.6V16.4C28.8 13.532 26.468 11.2 23.6 11.2H16.4ZM24.8 14.4C25.24 14.4 25.6 14.76 25.6 15.2C25.6 15.64 25.24 16 24.8 16C24.36 16 24 15.64 24 15.2C24 14.76 24.36 14.4 24.8 14.4ZM20 15.6C22.428 15.6 24.4 17.572 24.4 20C24.4 22.428 22.428 24.4 20 24.4C17.572 24.4 15.6 22.428 15.6 20C15.6 17.572 17.572 15.6 20 15.6ZM20 16.4C18.016 16.4 16.4 18.016 16.4 20C16.4 21.984 18.016 23.6 20 23.6C21.984 23.6 23.6 21.984 23.6 20C23.6 18.016 21.984 16.4 20 16.4Z" fill="#060707"/>
</svg>
